<svg xmlns="http://www.w3.org/2000/svg" viewBox="0 0 50 50"><path d="M25 2C11.2 2 0 10.8 0 21.6c0 7.1 4.7 13.2 11.9 16.7-.5 1.9-1.9 7-2.2 8.1-.3 1.4.5 1.3 1 1 .4-.3 6.8-4.6 9.6-6.5 1.5.2 3.1.3 4.6.3 13.8 0 25-8.8 25-19.6S38.8 2 25 2z" fill="#381e1f"/><linearGradient id="a" gradientUnits="userSpaceOnUse" x1="6.549" y1="23.435" x2="16.832" y2="23.435"><stop offset="0" stop-color="#e5dd4a"/><stop offset=".024" stop-color="#e5dc47"/><stop offset=".178" stop-color="#e4d83c"/><stop offset=".396" stop-color="#e4d635"/><stop offset="1" stop-color="#e4d533"/></linearGradient><path d="M15.6 17.4H7.7c-1.5 0-1.5 2.5 0 2.5h2.6v8.7c0 1.2 2.7 1.2 2.7 0v-8.7h2.6c1.6 0 1.6-2.5 0-2.5z" fill="url(#a)"/><linearGradient id="b" gradientUnits="userSpaceOnUse" x1="14.734" y1="23.447" x2="25.518" y2="23.447"><stop offset="0" stop-color="#e5dd4a"/><stop offset=".024" stop-color="#e5dc47"/><stop offset=".178" stop-color="#e4d83c"/><stop offset=".396" stop-color="#e4d635"/><stop offset="1" stop-color="#e4d533"/></linearGradient><path d="M21.7 18.1c-.4-.8-2.6-1.2-3.2 0-.6 1.4-3 8-3.7 9.8-.6 1.3 1.8 2.3 2.4 1l.5-1.8h4.8s-.2.1.5 1.7c.5 1.3 3 .4 2.5-.9-.8-1.9-3.3-8.8-3.8-9.8zm-3.1 6.7l1.6-4.5 1.5 4.5h-3.1z" fill="url(#b)"/><g><linearGradient id="c" gradientUnits="userSpaceOnUse" x1="26.361" y1="23.431" x2="33.556" y2="23.431"><stop offset="0" stop-color="#e5dd4a"/><stop offset=".024" stop-color="#e5dc47"/><stop offset=".178" stop-color="#e4d83c"/><stop offset=".396" stop-color="#e4d635"/><stop offset="1" stop-color="#e4d533"/></linearGradient><path d="M32.6 26.9h-3.5v-8.3c0-1.6-2.8-1.6-2.8 0v9.5s-.2 1.4 1 1.4h5.2c1.4 0 1.4-2.6.1-2.6z" fill="url(#c)"/></g><g><linearGradient id="d" gradientUnits="userSpaceOnUse" x1="34.161" y1="23.459" x2="43.376" y2="23.459"><stop offset="0" stop-color="#e5dd4a"/><stop offset=".024" stop-color="#e5dc47"/><stop offset=".178" stop-color="#e4d83c"/><stop offset=".396" stop-color="#e4d635"/><stop offset="1" stop-color="#e4d533"/></linearGradient><path d="M43.2 27.6l-3.6-4.8s2.5-2.7 3.5-3.6c.6-.6-1.2-2.3-1.8-1.8-.6.5-4.4 4.4-4.4 4.4V18c0-1.1-2.7-1-2.7.1v10.6c0 1 2.7 1 2.7 0v-3.5l.8-.6 3.4 4.7c.7.9 2.8-.7 2.1-1.7z" fill="url(#d)"/></g></svg>