<svg xmlns="http://www.w3.org/2000/svg" width="44" height="52">
    <path fill="#FFF" fill-rule="evenodd" d="M38.37 33.819c-1.428-2.038-2.141-4.334-2.141-6.888 0-2.327.672-4.458 2.017-6.394.724-1.05 1.903-2.265 3.537-3.645-1.076-1.318-2.152-2.348-3.227-3.089-1.945-1.338-4.148-2.008-6.609-2.008-1.469 0-3.258.351-5.368 1.05-2.027.701-3.506 1.051-4.437 1.051-.704 0-2.131-.309-4.282-.927-2.172-.618-4.002-.927-5.492-.927-3.558 0-6.496 1.483-8.812 4.448C1.218 19.497.05 23.348.05 28.043c0 4.984 1.52 10.162 4.561 15.537 3.082 5.333 6.195 8.001 9.34 8.001 1.054 0 2.42-.351 4.095-1.051 1.676-.679 3.144-1.019 4.406-1.019 1.345 0 2.906.329 4.685.988 1.882.659 3.331.989 4.344.989 2.648 0 5.306-2.019 7.975-6.054 1.737-2.574 3.01-5.148 3.816-7.723-1.841-.556-3.475-1.853-4.902-3.892zm-6.78-32.65c-.01-.123-.016-.226-.016-.309-.02-.061-.046-.174-.077-.339-.031-.165-.057-.278-.078-.34-3.641.844-6.226 2.368-7.757 4.571-1.551 2.224-2.358 4.871-2.42 7.939 1.386-.124 2.462-.298 3.227-.525 1.117-.371 2.234-1.112 3.351-2.224 1.303-1.298 2.265-2.718 2.886-4.263.599-1.544.9-2.945.9-4.201 0-.082-.006-.185-.016-.309z"/>
</svg>
